<svg width="48" height="48" viewBox="0 0 48 48" fill="none" xmlns="http://www.w3.org/2000/svg">
<path fill-rule="evenodd" clip-rule="evenodd" d="M27.6812 5H9.75024C7.5409 5 5.75024 6.79127 5.75024 9V21L5.75514 21.1996C5.85915 23.3156 7.60785 25 9.75024 25H11.7499L11.7502 28.5L11.756 28.6101C11.8352 29.3648 12.721 29.772 13.3502 29.3L19.1789 24.928L19.2497 24.899C19.5807 24.7372 19.8093 24.398 19.8112 24.0049L19.8186 22.4914C19.8236 21.3906 20.7186 20.5 21.8186 20.5H30.7292C31.2833 20.5 31.7318 20.0495 31.7292 19.4954L31.6812 8.98193C31.6712 6.78039 29.8822 5 27.6812 5ZM27.6812 7L27.8299 7.00546C28.8608 7.0814 29.6765 7.94064 29.6813 8.99104L29.7239 18.5H21.8186L21.6197 18.5049C19.5109 18.6083 17.8283 20.3471 17.8187 22.482L17.8139 23.452L13.7499 26.5L13.7502 24C13.7502 23.4477 13.3025 23 12.7502 23H9.75024C8.64562 23 7.75024 22.1043 7.75024 21V9C7.75024 7.89569 8.64562 7 9.75024 7H27.6812ZM13.4999 16.5C14.3294 16.5 14.9999 15.8295 14.9999 15C14.9999 14.1705 14.3294 13.5 13.4999 13.5C12.6704 13.5 11.9999 14.1705 11.9999 15C11.9999 15.8295 12.6704 16.5 13.4999 16.5ZM18.7499 16.5C19.5794 16.5 20.2499 15.8295 20.2499 15C20.2499 14.1705 19.5794 13.5 18.7499 13.5C17.9204 13.5 17.2499 14.1705 17.2499 15C17.2499 15.8295 17.9204 16.5 18.7499 16.5ZM25.4999 15C25.4999 15.8295 24.8294 16.5 23.9999 16.5C23.1704 16.5 22.4999 15.8295 22.4999 15C22.4999 14.1705 23.1704 13.5 23.9999 13.5C24.8294 13.5 25.4999 14.1705 25.4999 15Z" fill="#666F8C"/>
<path fill-rule="evenodd" clip-rule="evenodd" d="M39.7497 18.5H21.8187C19.6178 18.5 17.8287 20.2804 17.8187 22.482L17.7632 34.4819L17.7672 34.6821C17.8624 36.8052 19.6153 38.5 21.7632 38.5H30.416L36.1497 42.8L36.2412 42.8615C36.8925 43.2509 37.7497 42.7866 37.7497 42L37.749 38.5H39.7497C41.959 38.5 43.7497 36.7087 43.7497 34.5V22.5C43.7497 20.2913 41.959 18.5 39.7497 18.5ZM21.8187 20.5H39.7497C40.8543 20.5 41.7497 21.3957 41.7497 22.5V34.5C41.7497 35.6043 40.8543 36.5 39.7497 36.5H36.7497L36.6331 36.5067C36.1357 36.5645 35.7497 36.9872 35.7497 37.5L35.749 40L31.3497 36.7C31.1766 36.5702 30.9661 36.5 30.7497 36.5H21.7632C20.6561 36.5 19.7582 35.5983 19.7632 34.491L19.8187 22.4911C19.8237 21.3906 20.7186 20.5 21.8187 20.5ZM25.5 30.75C26.3295 30.75 27 30.0795 27 29.25C27 28.4205 26.3295 27.75 25.5 27.75C24.6705 27.75 24 28.4205 24 29.25C24 30.0795 24.6705 30.75 25.5 30.75ZM30.75 30.75C31.5795 30.75 32.25 30.0795 32.25 29.25C32.25 28.4205 31.5795 27.75 30.75 27.75C29.9205 27.75 29.25 28.4205 29.25 29.25C29.25 30.0795 29.9205 30.75 30.75 30.75ZM37.5 29.25C37.5 30.0795 36.8295 30.75 36 30.75C35.1705 30.75 34.5 30.0795 34.5 29.25C34.5 28.4205 35.1705 27.75 36 27.75C36.8295 27.75 37.5 28.4205 37.5 29.25Z" fill="url(#paint0_linear_7_986)"/>
<defs>
<linearGradient id="paint0_linear_7_986" x1="49.3407" y1="31.0358" x2="9.25851" y2="31.0358" gradientUnits="userSpaceOnUse">
<stop stop-color="#0E9BFC"/>
<stop offset="0.947917" stop-color="#FF00C7"/>
</linearGradient>
</defs>
</svg>
