<svg width="48" height="48" viewBox="0 0 48 48" fill="none" xmlns="http://www.w3.org/2000/svg">
<path fill-rule="evenodd" clip-rule="evenodd" d="M14.2495 5H29.2495C29.5147 5 29.7691 5.10536 29.9566 5.29289L38.9566 14.2929C39.1442 14.4804 39.2495 14.7348 39.2495 15V39C39.2495 41.2087 37.4589 43 35.2495 43H14.2495C12.0412 43 10.2495 41.2083 10.2495 39V9C10.2495 6.79172 12.0412 5 14.2495 5ZM37.2488 15.414L28.8348 7H14.2495C13.1458 7 12.2495 7.89628 12.2495 9V39C12.2495 40.1037 13.1458 41 14.2495 41H35.2495C36.3541 41 37.2495 40.1043 37.2495 39L37.2488 15.414Z" fill="#666F8C"/>
<path fill-rule="evenodd" clip-rule="evenodd" d="M20.9566 20.2929C20.5661 19.9024 19.9329 19.9024 19.5424 20.2929L17.2488 22.585L16.4566 21.7929L16.3624 21.7097C15.9701 21.4047 15.4029 21.4324 15.0424 21.7929C14.6519 22.1834 14.6519 22.8166 15.0424 23.2071L16.5424 24.7071L16.6366 24.7903C17.0289 25.0953 17.5961 25.0676 17.9566 24.7071L20.9566 21.7071L21.0398 21.6129C21.3448 21.2206 21.3171 20.6534 20.9566 20.2929ZM33.7255 21.5C34.2778 21.5 34.7255 21.9477 34.7255 22.5C34.7255 23.0128 34.3395 23.4355 33.8421 23.4933L33.7255 23.5H23.9995C23.4472 23.5 22.9995 23.0523 22.9995 22.5C22.9995 21.9872 23.3856 21.5645 23.8829 21.5067L23.9995 21.5H33.7255ZM20.9566 26.2929C20.5661 25.9024 19.9329 25.9024 19.5424 26.2929L17.2488 28.585L16.4566 27.7929L16.3624 27.7097C15.9701 27.4047 15.4029 27.4324 15.0424 27.7929C14.6519 28.1834 14.6519 28.8166 15.0424 29.2071L16.5424 30.7071L16.6366 30.7903C17.0289 31.0953 17.5961 31.0676 17.9566 30.7071L20.9566 27.7071L21.0398 27.6129C21.3448 27.2206 21.3171 26.6534 20.9566 26.2929ZM34.7255 28.5C34.7255 27.9477 34.2778 27.5 33.7255 27.5H23.9995L23.8829 27.5067C23.3856 27.5645 22.9995 27.9872 22.9995 28.5C22.9995 29.0523 23.4472 29.5 23.9995 29.5H33.7255L33.8421 29.4933C34.3395 29.4355 34.7255 29.0128 34.7255 28.5ZM34.7255 34.5C34.7255 33.9477 34.2778 33.5 33.7255 33.5H23.9995L23.8829 33.5067C23.3856 33.5645 22.9995 33.9872 22.9995 34.5C22.9995 35.0523 23.4472 35.5 23.9995 35.5H33.7255L33.8421 35.4933C34.3395 35.4355 34.7255 35.0128 34.7255 34.5ZM19.5424 32.2929C19.9329 31.9024 20.5661 31.9024 20.9566 32.2929C21.3171 32.6534 21.3448 33.2206 21.0398 33.6129L20.9566 33.7071L17.9566 36.7071C17.5961 37.0676 17.0289 37.0953 16.6366 36.7903L16.5424 36.7071L15.0424 35.2071C14.6519 34.8166 14.6519 34.1834 15.0424 33.7929C15.4029 33.4324 15.9701 33.4047 16.3624 33.7097L16.4566 33.7929L17.2488 34.585L19.5424 32.2929Z" fill="url(#paint0_linear_7_1130)"/>
<path d="M29.2495 5C29.7623 5 30.185 5.38604 30.2428 5.88338L30.2495 6V12.747C30.2495 13.3964 30.7419 13.9294 31.3743 13.9935L31.5025 14H38.2495C38.8018 14 39.2495 14.4477 39.2495 15C39.2495 15.5128 38.8635 15.9355 38.3661 15.9933L38.2495 16H31.5025C29.7672 16 28.3503 14.6429 28.2547 12.9317L28.2495 12.747V6C28.2495 5.44772 28.6972 5 29.2495 5Z" fill="#666F8C"/>
<defs>
<linearGradient id="paint0_linear_7_1130" x1="39.0234" y1="28.6977" x2="8.21191" y2="28.6977" gradientUnits="userSpaceOnUse">
<stop stop-color="#0E9BFC"/>
<stop offset="0.947917" stop-color="#FF00C7"/>
</linearGradient>
</defs>
</svg>
